<svg xmlns="http://www.w3.org/2000/svg" viewBox="0 0 96.17 96.26"><defs><style>.cls-1{fill:#fff;}.cls-2{fill:#1780ae;}</style></defs><title>icon</title><g id="Layer_2" data-name="Layer 2"><g id="Layer_1-2" data-name="Layer 1"><path class="cls-1" d="M61.09.15C50.4-1,38.4,4.9,33.71,14.78c-2.25,4.74-4.22,14.34,3.45,15.07a23.07,23.07,0,0,0,8.66-1.31A32,32,0,0,0,53.56,25,27.34,27.34,0,0,0,65,10.52L59,8.86c-5.11,21.89-5.09,45-12.92,66.2A76.17,76.17,0,0,1,37.6,91.59L42.51,91a3,3,0,0,1-.75-.84c.22.39-.26-.89-.09-.26-.08-.3,0-.42,0-.13a3.81,3.81,0,0,1,.15-.65,5,5,0,0,1,.52-1.3,32.57,32.57,0,0,1,3.36-5.26,44.49,44.49,0,0,1,10.1-9.31c7.31-4.93,15.55-7.82,23.87-10.54,4.78-1.56,9.57-3.09,14.26-4.91a3.13,3.13,0,0,0-.84-6.14q-35.06-1.26-70.14-1-10,.07-19.9.27C-1,51-1,57.2,3,57.13q35.07-.69,70.15.14,9.94.23,19.89.59l-.83-6.14c-9.09,3.54-18.58,6-27.58,9.75-9.6,4-18.39,9.82-24.67,18.27a26.68,26.68,0,0,0-4.12,7.34,7.74,7.74,0,0,0,2.23,8.29A3.18,3.18,0,0,0,43,94.74C56.1,75.47,58.28,52,61.56,29.61c.93-6.4,2-12.79,3.47-19.09a3.13,3.13,0,0,0-6-1.66,20.29,20.29,0,0,1-6.85,9.46,25.7,25.7,0,0,1-12,5.14,16.93,16.93,0,0,1-2.52.18s.17.1.16.12l.12.11c.09.2.11.2,0,0,0,0,0,0,0-.3s0-.65,0-1,.12-1.2.06-.78a13.74,13.74,0,0,1,.29-1.42c.12-.47.25-.94.41-1.39a8.16,8.16,0,0,1,.43-1.07,19.7,19.7,0,0,1,8.21-8.64A22.08,22.08,0,0,1,61.09,6.4c1.68.19,3.13-1.57,3.13-3.12A3.2,3.2,0,0,0,61.09.15Z"/><path class="cls-2" d="M61.09.78C50.59-.4,38.86,5.39,34.25,15.1c-2,4.28-4.14,13.41,2.91,14.12a22.38,22.38,0,0,0,8.49-1.29,31.19,31.19,0,0,0,7.59-3.52A26.63,26.63,0,0,0,64.42,10.35L59.6,9C54.5,30.92,54.51,54,46.68,75.23A76.3,76.3,0,0,1,38.14,91.9l3.93-.5c-1.38-1.28-1.12-2.31-.3-3.94a32.09,32.09,0,0,1,3.46-5.39,45.72,45.72,0,0,1,10.22-9.41c7.33-5,15.68-7.87,24-10.6C84.25,60.49,89,59,93.73,57.15c2.55-1,2.3-4.81-.67-4.92Q58,51,22.92,51.23,13,51.31,3,51.5c-3.22.06-3.23,5.06,0,5q35.07-.68,70.15.14,9.94.24,19.89.59l-.66-4.91C83.33,55.85,73.86,58.26,64.89,62c-9.47,4-18.18,9.68-24.37,18a26.31,26.31,0,0,0-4.05,7.19,7.1,7.1,0,0,0,2.06,7.69,2.54,2.54,0,0,0,3.93-.5C55.53,75.2,57.68,51.81,61,29.45c.93-6.41,2-12.79,3.46-19.1A2.5,2.5,0,0,0,59.6,9c-2.65,8.28-11,13.74-19.3,15-.58.09-2.39.55-2.85.18-.3-.24-.18-1.19-.15-1.65a13.52,13.52,0,0,1,1.27-5A20.57,20.57,0,0,1,47,8.75a22.9,22.9,0,0,1,14.09-3,2.52,2.52,0,0,0,2.5-2.5,2.55,2.55,0,0,0-2.5-2.5Z"/></g></g></svg>