<svg xmlns="http://www.w3.org/2000/svg" viewBox="0 0 167.66 107.16"><defs><style>.cls-1{fill:#fff;}.cls-2,.cls-3{fill:#1780ae;}.cls-2{stroke:#f6f6f6;stroke-miterlimit:10;stroke-width:0.5px;}</style></defs><title>logo</title><g id="Layer_2" data-name="Layer 2"><g id="Layer_1-2" data-name="Layer 1"><path class="cls-1" d="M61.09,11.05C50.4,9.85,38.4,15.79,33.71,25.68,31.46,30.42,29.49,40,37.16,40.75a23.48,23.48,0,0,0,8.66-1.31,32.43,32.43,0,0,0,7.74-3.59A27.34,27.34,0,0,0,65,21.42l-6-1.66C53.89,41.65,53.91,64.71,46.08,86a76.4,76.4,0,0,1-8.48,16.53l4.91-.64a3,3,0,0,1-.75-.84c.22.39-.26-.89-.09-.26-.08-.3,0-.43,0-.13a3.81,3.81,0,0,1,.15-.65,5,5,0,0,1,.52-1.3,32.57,32.57,0,0,1,3.36-5.26,44.49,44.49,0,0,1,10.1-9.31c7.31-4.94,15.55-7.82,23.87-10.54,4.78-1.56,9.57-3.09,14.26-4.91a3.13,3.13,0,0,0-.84-6.14q-35.06-1.26-70.14-1-10,.08-19.9.27C-1,61.85-1,68.1,3,68q35.07-.69,70.15.14,9.94.22,19.89.59l-.83-6.14c-9.09,3.54-18.58,6-27.58,9.75-9.6,4-18.39,9.82-24.67,18.26A26.83,26.83,0,0,0,35.86,98a7.75,7.75,0,0,0,2.23,8.3,3.18,3.18,0,0,0,4.91-.63C56.1,86.37,58.28,62.93,61.56,40.51c.93-6.4,2-12.79,3.47-19.09a3.13,3.13,0,0,0-6-1.66,20.29,20.29,0,0,1-6.85,9.46,25.58,25.58,0,0,1-12,5.13,15.79,15.79,0,0,1-2.52.19s.17.1.16.11l.12.12c.09.2.11.2,0,0,0,0,0,0,0-.3s0-.65,0-1,.12-1.2.06-.78a13.74,13.74,0,0,1,.29-1.42c.12-.47.25-.94.41-1.4a7.88,7.88,0,0,1,.43-1.06,19.7,19.7,0,0,1,8.21-8.64A22,22,0,0,1,61.09,17.3c1.68.19,3.13-1.57,3.13-3.12a3.2,3.2,0,0,0-3.13-3.13Z"/><path class="cls-2" d="M82.88,46.08a59.45,59.45,0,0,1-4.27,5.39q-3.26,3.59-6.45,3.59a4.76,4.76,0,0,1-4.26-2.47,7.81,7.81,0,0,1-1.07-4.15q0-7.24,6.17-16.61a29.5,29.5,0,0,1,5.67-6.67c1.46-1.24,2.65-1.85,3.59-1.85a2,2,0,0,1,1.46.67,1.86,1.86,0,0,1,.56,1.23c0,.71-.69,1.87-2.08,3.48A57.34,57.34,0,0,0,75.14,38.9q-2.81,5.45-2.81,8.53a1.79,1.79,0,0,0,.36,1.2,1.31,1.31,0,0,0,1,.42q2.86,0,8-8.19a52,52,0,0,0,4.54-9.42,19.26,19.26,0,0,1,2.64-5c1.05-1.31,2.07-2,3.08-2a2.06,2.06,0,0,1,1.52.73A2.55,2.55,0,0,1,94.21,27q0,2-3.87,9.09-2.64,4.88-2.64,8.13a9.67,9.67,0,0,0,1.85,5.95,12.22,12.22,0,0,0,3.09,2.13,2.53,2.53,0,0,1,1.23,2.36A2.21,2.21,0,0,1,93,56.35a3.19,3.19,0,0,1-2.1.73,7.17,7.17,0,0,1-5.11-2.25A9.85,9.85,0,0,1,83.16,49,28.12,28.12,0,0,1,82.88,46.08Z"/><path class="cls-2" d="M111.77,21.06a2,2,0,0,1,1.57.73,2.07,2.07,0,0,1,.44,1.24,7.57,7.57,0,0,1-1.62,3.36,102.74,102.74,0,0,0-8.3,14.87A124.86,124.86,0,0,0,99.2,53.6c-.6,1.87-1.53,2.8-2.8,2.8a2.14,2.14,0,0,1-1.8-.9A2.37,2.37,0,0,1,94,53.93q0-1.68,3.59-11.22a77.79,77.79,0,0,1,9.09-16.6,31.52,31.52,0,0,1,3-4A2.91,2.91,0,0,1,111.77,21.06ZM122.42.25A2.26,2.26,0,0,1,125,2.83q0,2.36-2.47,5.22t-4.54,2.75A2.17,2.17,0,0,1,116.2,10a2.53,2.53,0,0,1-.68-1.79q0-2.7,3-5.73C120,1,121.26.25,122.42.25Z"/><path class="cls-2" d="M116.42,48.16a28.36,28.36,0,0,1,9-1.74q6.49,0,6.5,3.36a2.65,2.65,0,0,1-.78,1.85,2.38,2.38,0,0,1-1.8.85,14.15,14.15,0,0,1-2.63-.51,8.54,8.54,0,0,0-2.3-.34,20.91,20.91,0,0,0-9,2,12.35,12.35,0,0,1-4,1.46,3.31,3.31,0,0,1-2.25-.84,2.3,2.3,0,0,1-.89-1.74q0-2.3,5.49-9.25a108.65,108.65,0,0,1,17.45-17.51c-4.08.49-6.86.73-8.36.73q-5.39,0-5.38-3.19a2.28,2.28,0,0,1,.67-1.69,1.93,1.93,0,0,1,1.4-.61,23.6,23.6,0,0,1,3,.39,16.56,16.56,0,0,0,2.75.17,40.92,40.92,0,0,0,9.37-1.07,13.93,13.93,0,0,1,3-.39,3.13,3.13,0,0,1,2.36,1,2.41,2.41,0,0,1,.73,1.79c0,1.24-1,2.58-3.14,4a145.19,145.19,0,0,0-13,11.17A68,68,0,0,0,116.42,48.16Z"/><path class="cls-2" d="M141.78,43.89v1a3.64,3.64,0,0,0,.61,2.13,5.14,5.14,0,0,0,4.6,2.08q7,0,16.22-10.77c1.08-1.23,2-1.85,2.74-1.85a1.43,1.43,0,0,1,1.13.62,1.45,1.45,0,0,1,.33.84q0,2.19-5.38,7.4a40.67,40.67,0,0,1-9,6.68,18.79,18.79,0,0,1-8.86,2.58,8.14,8.14,0,0,1-6.62-2.92,8.56,8.56,0,0,1-1.63-5.5q0-9.48,8.92-18.56,7.24-7.41,12.62-7.41a4.24,4.24,0,0,1,2.64.9,3.77,3.77,0,0,1,1.46,3.08q0,3-2.75,7.3Q153.16,40.47,141.78,43.89ZM143,39.52a22.55,22.55,0,0,0,6.17-3,24.93,24.93,0,0,0,6.23-6.85,4.66,4.66,0,0,0,.84-2.41c0-.75-.36-1.12-1.07-1.12q-1.45,0-4.15,2.19A28.75,28.75,0,0,0,143,39.52Z"/><path class="cls-3" d="M61.09,11.68C50.59,10.5,38.86,16.29,34.25,26c-2,4.29-4.14,13.42,2.91,14.13a22.38,22.38,0,0,0,8.49-1.29,31.19,31.19,0,0,0,7.59-3.52A26.63,26.63,0,0,0,64.42,21.25L59.6,19.92c-5.1,21.9-5.09,45-12.92,66.2a76.37,76.37,0,0,1-8.54,16.68l3.93-.5C40.69,101,41,100,41.77,98.36A32.09,32.09,0,0,1,45.23,93a45.72,45.72,0,0,1,10.22-9.41c7.33-5,15.68-7.87,24-10.6C84.25,71.39,89,69.87,93.73,68c2.55-1,2.3-4.8-.67-4.91q-35.06-1.25-70.14-1Q13,62.21,3,62.4c-3.22.06-3.23,5.06,0,5q35.07-.68,70.15.14,9.94.24,19.89.59l-.66-4.91c-9.07,3.53-18.54,5.94-27.51,9.72-9.47,4-18.18,9.68-24.37,18a26.31,26.31,0,0,0-4.05,7.19,7.11,7.11,0,0,0,2.06,7.69,2.54,2.54,0,0,0,3.93-.51C55.53,86.1,57.68,62.71,61,40.35c.93-6.41,2-12.79,3.46-19.1a2.5,2.5,0,0,0-4.82-1.33c-2.65,8.29-11,13.75-19.3,15-.58.09-2.39.55-2.85.18-.3-.24-.18-1.19-.15-1.65a13.52,13.52,0,0,1,1.27-5A20.57,20.57,0,0,1,47,19.65a22.83,22.83,0,0,1,14.09-3,2.52,2.52,0,0,0,2.5-2.5,2.55,2.55,0,0,0-2.5-2.5Z"/></g></g></svg>